<svg xmlns="http://www.w3.org/2000/svg" viewBox="0 0 1000 800">
  <!-- Background -->
  <rect width="1000" height="800" fill="#f8f9fa" />
  
  <!-- Title -->
  <text x="500" y="30" font-family="Arial" font-size="24" text-anchor="middle" font-weight="bold">TradingView Solana Webhook - Sequence Diagram</text>
  
  <!-- Actor/Object Headers -->
  <!-- TradingView -->
  <rect x="50" y="60" width="120" height="40" fill="#FF9966" stroke="#E67300" stroke-width="2" rx="5" ry="5" />
  <text x="110" y="85" font-family="Arial" font-size="14" text-anchor="middle" fill="#fff" font-weight="bold">TradingView</text>
  <line x1="110" y1="100" x2="110" y2="750" stroke="#E67300" stroke-width="1" stroke-dasharray="5,5" />
  
  <!-- API Gateway -->
  <rect x="200" y="60" width="120" height="40" fill="#8C4FFF" stroke="#6B24D9" stroke-width="2" rx="5" ry="5" />
  <text x="260" y="85" font-family="Arial" font-size="14" text-anchor="middle" fill="#fff" font-weight="bold">API Gateway</text>
  <line x1="260" y1="100" x2="260" y2="750" stroke="#6B24D9" stroke-width="1" stroke-dasharray="5,5" />
  
  <!-- Lambda Handler -->
  <rect x="350" y="60" width="120" height="40" fill="#FF9900" stroke="#E68A00" stroke-width="2" rx="5" ry="5" />
  <text x="410" y="85" font-family="Arial" font-size="14" text-anchor="middle" fill="#fff" font-weight="bold">Lambda Handler</text>
  <line x1="410" y1="100" x2="410" y2="750" stroke="#E68A00" stroke-width="1" stroke-dasharray="5,5" />
  
  <!-- TradeStateManager -->
  <rect x="500" y="60" width="120" height="40" fill="#3CB371" stroke="#2E8B57" stroke-width="2" rx="5" ry="5" />
  <text x="560" y="85" font-family="Arial" font-size="14" text-anchor="middle" fill="#fff" font-weight="bold">TradeStateManager</text>
  <line x1="560" y1="100" x2="560" y2="750" stroke="#2E8B57" stroke-width="1" stroke-dasharray="5,5" />
  
  <!-- WalletManager -->
  <rect x="650" y="60" width="120" height="40" fill="#DC143C" stroke="#B22222" stroke-width="2" rx="5" ry="5" />
  <text x="710" y="85" font-family="Arial" font-size="14" text-anchor="middle" fill="#fff" font-weight="bold">WalletManager</text>
  <line x1="710" y1="100" x2="710" y2="750" stroke="#B22222" stroke-width="1" stroke-dasharray="5,5" />
  
  <!-- TradeService -->
  <rect x="800" y="60" width="120" height="40" fill="#4682B4" stroke="#36648B" stroke-width="2" rx="5" ry="5" />
  <text x="860" y="85" font-family="Arial" font-size="14" text-anchor="middle" fill="#fff" font-weight="bold">TradeService</text>
  <line x1="860" y1="100" x2="860" y2="750" stroke="#36648B" stroke-width="1" stroke-dasharray="5,5" />
  
  <!-- Message 1: TradingView to API Gateway -->
  <line x1="110" y1="130" x2="260" y2="130" stroke="#000" stroke-width="2" />
  <polygon points="260,130 250,125 250,135" fill="#000" />
  <text x="185" y="120" font-family="Arial" font-size="12" text-anchor="middle">Send Alert</text>
  <text x="185" y="140" font-family="Arial" font-size="10" text-anchor="middle" fill="#666">POST /trade/{timeframe}</text>
  
  <!-- Message 2: API Gateway to Lambda -->
  <line x1="260" y1="170" x2="410" y2="170" stroke="#000" stroke-width="2" />
  <polygon points="410,170 400,165 400,175" fill="#000" />
  <text x="335" y="160" font-family="Arial" font-size="12" text-anchor="middle">Forward Request</text>
  
  <!-- Message 3: Lambda to Validate -->
  <line x1="410" y1="210" x2="440" y2="210" stroke="#000" stroke-width="2" />
  <line x1="440" y1="210" x2="440" y2="230" stroke="#000" stroke-width="2" />
  <line x1="440" y1="230" x2="410" y2="230" stroke="#000" stroke-width="2" />
  <polygon points="410,230 420,225 420,235" fill="#000" />
  <text x="490" y="220" font-family="Arial" font-size="12" text-anchor="start">validateEnvironment()</text>
  <text x="490" y="235" font-family="Arial" font-size="12" text-anchor="start">validateAlert()</text>
  
  <!-- Message 4: Lambda to TradeStateManager -->
  <line x1="410" y1="270" x2="560" y2="270" stroke="#000" stroke-width="2" />
  <polygon points="560,270 550,265 550,275" fill="#000" />
  <text x="485" y="260" font-family="Arial" font-size="12" text-anchor="middle">Get Current State</text>
  
  <!-- Message 5: TradeStateManager to SSM -->
  <rect x="610" y="290" width="100" height="30" fill="#f0f0f0" stroke="#999" stroke-width="1" rx="5" ry="5" />
  <text x="660" y="310" font-family="Arial" font-size="10" text-anchor="middle" fill="#333">SSM GetParameter</text>
  <line x1="560" y1="290" x2="610" y2="290" stroke="#000" stroke-width="2" />
  <polygon points="610,290 600,285 600,295" fill="#000" />
  
  <!-- Message 6: SSM to TradeStateManager -->
  <line x1="610" y1="330" x2="560" y2="330" stroke="#000" stroke-width="2" />
  <polygon points="560,330 570,325 570,335" fill="#000" />
  <text x="585" y="350" font-family="Arial" font-size="10" text-anchor="middle" fill="#666">Return current state</text>
  
  <!-- Message 7: TradeStateManager to Lambda -->
  <line x1="560" y1="370" x2="410" y2="370" stroke="#000" stroke-width="2" />
  <polygon points="410,370 420,365 420,375" fill="#000" />
  
  <!-- Check if already executed -->
  <rect x="330" y="380" width="160" height="40" fill="#f9f9f9" stroke="#ccc" stroke-width="1" rx="3" ry="3" />
  <text x="410" y="405" font-family="Arial" font-size="10" text-anchor="middle" fill="#333">if (currentState === action)</text>
  <text x="410" y="420" font-family="Arial" font-size="10" text-anchor="middle" fill="#333">Skip trade execution</text>
  
  <!-- Message 8: Lambda to WalletManager -->
  <line x1="410" y1="450" x2="710" y2="450" stroke="#000" stroke-width="2" />
  <polygon points="710,450 700,445 700,455" fill="#000" />
  <text x="560" y="440" font-family="Arial" font-size="12" text-anchor="middle">Get Wallet</text>
  
  <!-- Message 9: WalletManager to Secrets Manager -->
  <rect x="760" y="470" width="120" height="30" fill="#f0f0f0" stroke="#999" stroke-width="1" rx="5" ry="5" />
  <text x="820" y="490" font-family="Arial" font-size="10" text-anchor="middle" fill="#333">Secrets Manager</text>
  <line x1="710" y1="470" x2="760" y2="470" stroke="#000" stroke-width="2" />
  <polygon points="760,470 750,465 750,475" fill="#000" />
  
  <!-- Message 10: Secrets Manager to WalletManager -->
  <line x1="760" y1="510" x2="710" y2="510" stroke="#000" stroke-width="2" />
  <polygon points="710,510 720,505 720,515" fill="#000" />
  <text x="735" y="530" font-family="Arial" font-size="10" text-anchor="middle" fill="#666">Return wallet keypair</text>
  
  <!-- Message 11: WalletManager to Lambda -->
  <line x1="710" y1="550" x2="410" y2="550" stroke="#000" stroke-width="2" />
  <polygon points="410,550 420,545 420,555" fill="#000" />
  
  <!-- Message 12: Lambda to TradeStateManager -->
  <line x1="410" y1="590" x2="560" y2="590" stroke="#000" stroke-width="2" />
  <polygon points="560,590 550,585 550,595" fill="#000" />
  <text x="485" y="580" font-family="Arial" font-size="12" text-anchor="middle">Update State</text>
  
  <!-- Message 13: TradeStateManager to SSM -->
  <rect x="610" y="610" width="100" height="30" fill="#f0f0f0" stroke="#999" stroke-width="1" rx="5" ry="5" />
  <text x="660" y="630" font-family="Arial" font-size="10" text-anchor="middle" fill="#333">SSM PutParameter</text>
  <line x1="560" y1="610" x2="610" y2="610" stroke="#000" stroke-width="2" />
  <polygon points="610,610 600,605 600,615" fill="#000" />
  
  <!-- Message 14: TradeStateManager to Lambda -->
  <line x1="560" y1="650" x2="410" y2="650" stroke="#000" stroke-width="2" />
  <polygon points="410,650 420,645 420,655" fill="#000" />
  
  <!-- Message 15: Lambda to TradeService -->
  <line x1="410" y1="680" x2="860" y2="680" stroke="#000" stroke-width="2" />
  <polygon points="860,680 850,675 850,685" fill="#000" />
  <text x="635" y="670" font-family="Arial" font-size="12" text-anchor="middle">Execute Trade</text>
  
  <!-- Solana/Jupiter API -->
  <rect x="910" y="700" width="80" height="30" fill="#f0f0f0" stroke="#999" stroke-width="1" rx="5" ry="5" />
  <text x="950" y="720" font-family="Arial" font-size="10" text-anchor="middle" fill="#333">Jupiter API</text>
  <line x1="860" y1="700" x2="910" y2="700" stroke="#000" stroke-width="2" />
  <polygon points="910,700 900,695 900,705" fill="#000" />
  
  <!-- Message 16: TradeService to Lambda -->
  <line x1="860" y1="740" x2="410" y2="740" stroke="#000" stroke-width="2" />
  <polygon points="410,740 420,735 420,745" fill="#000" />
  <text x="635" y="730" font-family="Arial" font-size="12" text-anchor="middle">Return Trade Result</text>
  
  <!-- Notes -->
  <rect x="50" y="770" width="900" height="20" fill="none" />
  <text x="500" y="785" font-family="Arial" font-size="12" text-anchor="middle" fill="#666">Trade Service internally uses SolanaClient and JupiterClient to execute trades on Solana blockchain</text>
</svg>